
<mxfile host="app.diagrams.net">
  <diagram name="WellnessHub_GCP_Architecture" id="wellness-hub-gcp">
    <mxGraphModel dx="1210" dy="730" grid="1" gridSize="10" guides="1" tooltips="1" connect="1" arrows="1" fold="1" page="1" pageScale="1" pageWidth="850" pageHeight="1100">
      <root>
        <mxCell id="0"/>
        <mxCell id="1" parent="0"/>
        
        <!-- Users -->
        <mxCell id="user" value="End Users
(Mobile/Web)" style="ellipse;whiteSpace=wrap;html=1;" vertex="1" parent="1">
          <mxGeometry x="20" y="100" width="100" height="60" as="geometry"/>
        </mxCell>

        <!-- API -->
        <mxCell id="api" value="Wellness Hub API
(GCP Cloud Run)" style="rounded=1;whiteSpace=wrap;html=1;" vertex="1" parent="1">
          <mxGeometry x="160" y="100" width="140" height="60" as="geometry"/>
        </mxCell>

        <!-- Scheduler -->
        <mxCell id="scheduler" value="GCP Scheduler" style="rounded=1;whiteSpace=wrap;html=1;" vertex="1" parent="1">
          <mxGeometry x="160" y="200" width="140" height="60" as="geometry"/>
        </mxCell>

        <!-- AI Pillars -->
        <mxCell id="mind" value="Mind
(NLP API)" style="rounded=1;fillColor=#DAE8FC;whiteSpace=wrap;html=1;" vertex="1" parent="1">
          <mxGeometry x="340" y="60" width="150" height="60" as="geometry"/>
        </mxCell>
        <mxCell id="body" value="Body
(Vision AI, Vertex AI)" style="rounded=1;fillColor=#D5E8D4;whiteSpace=wrap;html=1;" vertex="1" parent="1">
          <mxGeometry x="340" y="130" width="150" height="60" as="geometry"/>
        </mxCell>
        <mxCell id="spirituality" value="Spirituality
(Custom Rules + NLP)" style="rounded=1;fillColor=#FFE6CC;whiteSpace=wrap;html=1;" vertex="1" parent="1">
          <mxGeometry x="340" y="200" width="150" height="60" as="geometry"/>
        </mxCell>
        <mxCell id="ayurveda" value="Ayurveda
(AutoML, Firestore)" style="rounded=1;fillColor=#FFF2CC;whiteSpace=wrap;html=1;" vertex="1" parent="1">
          <mxGeometry x="340" y="270" width="150" height="60" as="geometry"/>
        </mxCell>
        <mxCell id="food" value="Satvik Food
(AutoML Classifier)" style="rounded=1;fillColor=#F8CECC;whiteSpace=wrap;html=1;" vertex="1" parent="1">
          <mxGeometry x="340" y="340" width="150" height="60" as="geometry"/>
        </mxCell>
        <mxCell id="journal" value="Journal
(Vertex AI, NLP)" style="rounded=1;fillColor=#E1D5E7;whiteSpace=wrap;html=1;" vertex="1" parent="1">
          <mxGeometry x="340" y="410" width="150" height="60" as="geometry"/>
        </mxCell>

        <!-- Data -->
        <mxCell id="data" value="Data Layer
(BigQuery, Firestore)" style="rounded=1;fillColor=#F5F5F5;whiteSpace=wrap;html=1;" vertex="1" parent="1">
          <mxGeometry x="540" y="200" width="160" height="100" as="geometry"/>
        </mxCell>

        <!-- IoT -->
        <mxCell id="iot" value="Wearables / IoT
(GCP IoT Core)" style="rounded=1;whiteSpace=wrap;html=1;" vertex="1" parent="1">
          <mxGeometry x="20" y="300" width="130" height="60" as="geometry"/>
        </mxCell>

        <!-- Connections -->
        <mxCell id="e1" style="endArrow=block;" edge="1" parent="1" source="user" target="api"><mxGeometry relative="1" as="geometry"/></mxCell>
        <mxCell id="e2" style="endArrow=block;" edge="1" parent="1" source="api" target="mind"><mxGeometry relative="1" as="geometry"/></mxCell>
        <mxCell id="e3" style="endArrow=block;" edge="1" parent="1" source="api" target="body"><mxGeometry relative="1" as="geometry"/></mxCell>
        <mxCell id="e4" style="endArrow=block;" edge="1" parent="1" source="api" target="spirituality"><mxGeometry relative="1" as="geometry"/></mxCell>
        <mxCell id="e5" style="endArrow=block;" edge="1" parent="1" source="api" target="ayurveda"><mxGeometry relative="1" as="geometry"/></mxCell>
        <mxCell id="e6" style="endArrow=block;" edge="1" parent="1" source="api" target="food"><mxGeometry relative="1" as="geometry"/></mxCell>
        <mxCell id="e7" style="endArrow=block;" edge="1" parent="1" source="api" target="journal"><mxGeometry relative="1" as="geometry"/></mxCell>
        <mxCell id="e8" style="endArrow=block;" edge="1" parent="1" source="scheduler" target="journal"><mxGeometry relative="1" as="geometry"/></mxCell>
        <mxCell id="e9" style="endArrow=block;" edge="1" parent="1" source="iot" target="data"><mxGeometry relative="1" as="geometry"/></mxCell>
        <mxCell id="e10" style="endArrow=block;" edge="1" parent="1" source="mind" target="data"><mxGeometry relative="1" as="geometry"/></mxCell>
        <mxCell id="e11" style="endArrow=block;" edge="1" parent="1" source="body" target="data"><mxGeometry relative="1" as="geometry"/></mxCell>
        <mxCell id="e12" style="endArrow=block;" edge="1" parent="1" source="spirituality" target="data"><mxGeometry relative="1" as="geometry"/></mxCell>
        <mxCell id="e13" style="endArrow=block;" edge="1" parent="1" source="ayurveda" target="data"><mxGeometry relative="1" as="geometry"/></mxCell>
        <mxCell id="e14" style="endArrow=block;" edge="1" parent="1" source="food" target="data"><mxGeometry relative="1" as="geometry"/></mxCell>
        <mxCell id="e15" style="endArrow=block;" edge="1" parent="1" source="journal" target="data"><mxGeometry relative="1" as="geometry"/></mxCell>
      </root>
    </mxGraphModel>
  </diagram>
</mxfile>
